<svg xmlns="http://www.w3.org/2000/svg" viewBox="0 0 320 400" width="320" height="400" role="img" aria-label="Portrait placeholder — install real photo with ./bin/install-photo.sh">
  <defs>
    <radialGradient id="g" cx="50%" cy="38%" r="62%">
      <stop offset="0" stop-color="#1A1D23"/>
      <stop offset="0.7" stop-color="#0E1014"/>
      <stop offset="1" stop-color="#08090C"/>
    </radialGradient>
    <linearGradient id="rim" x1="0%" y1="0%" x2="0%" y2="100%">
      <stop offset="0" stop-color="#9C9DA4" stop-opacity="0"/>
      <stop offset="0.45" stop-color="#9C9DA4" stop-opacity="0.18"/>
      <stop offset="1" stop-color="#9C9DA4" stop-opacity="0"/>
    </linearGradient>
  </defs>
  <rect width="320" height="400" fill="url(#g)"/>
  <!-- abstract head + shoulders silhouette -->
  <g fill="none" stroke="url(#rim)" stroke-width="1.2">
    <circle cx="160" cy="150" r="58"/>
    <path d="M 60 380 C 60 300, 105 252, 160 252 C 215 252, 260 300, 260 380"/>
  </g>
  <g fill="#15181D">
    <circle cx="160" cy="150" r="58"/>
    <path d="M 60 400 C 60 300, 105 252, 160 252 C 215 252, 260 300, 260 400 Z"/>
  </g>
  <!-- hairline corner ticks (engineering blueprint feel) -->
  <g stroke="#252830" stroke-width="1" fill="none">
    <path d="M 8 8 L 24 8 M 8 8 L 8 24"/>
    <path d="M 312 8 L 296 8 M 312 8 L 312 24"/>
    <path d="M 8 392 L 24 392 M 8 392 L 8 376"/>
    <path d="M 312 392 L 296 392 M 312 392 L 312 376"/>
  </g>
</svg>
